<svg width="23" height="23" viewBox="0 0 23 23" fill="none" xmlns="http://www.w3.org/2000/svg">
<path d="M11.5009 7.16375V21.6209M20.1751 11.5009H2.82657H20.1751ZM20.1751 11.5009C20.5586 11.5009 20.9263 11.3486 21.1974 11.0774C21.4685 10.8063 21.6209 10.4386 21.6209 10.0552V8.60946C21.6209 8.22603 21.4685 7.85831 21.1974 7.58719C20.9263 7.31606 20.5586 7.16375 20.1751 7.16375H2.82657C2.44315 7.16375 2.07542 7.31606 1.8043 7.58719C1.53318 7.85831 1.38086 8.22603 1.38086 8.60946V10.0552C1.38086 10.4386 1.53318 10.8063 1.8043 11.0774C2.07542 11.3486 2.44315 11.5009 2.82657 11.5009H20.1751ZM20.1751 11.5009V18.7295C20.1751 19.4963 19.8705 20.2318 19.3283 20.774C18.786 21.3163 18.0506 21.6209 17.2837 21.6209H5.718C4.95115 21.6209 4.2157 21.3163 3.67345 20.774C3.13121 20.2318 2.82657 19.4963 2.82657 18.7295V11.5009H20.1751ZM11.5009 7.16375V5.71803V7.16375ZM11.5009 7.16375H6.75024C6.42483 7.16375 6.10261 7.09965 5.80197 6.97512C5.50133 6.8506 5.22816 6.66807 4.99806 6.43797C4.53336 5.97326 4.27229 5.34299 4.27229 4.68579V4.27232C4.27229 3.50546 4.57692 2.77002 5.11917 2.22777C5.66142 1.68552 6.39686 1.38089 7.16372 1.38089C8.314 1.38089 9.41717 1.83784 10.2305 2.65121C11.0439 3.46458 11.5009 4.56775 11.5009 5.71803V7.16375ZM11.5009 7.16375H16.2515C17.6206 7.16375 18.7294 6.05344 18.7294 4.68579V4.27232C18.7294 3.50546 18.4248 2.77002 17.8825 2.22777C17.3403 1.68552 16.6049 1.38089 15.838 1.38089C14.6877 1.38089 13.5846 1.83784 12.7712 2.65121C11.9578 3.46458 11.5009 4.56775 11.5009 5.71803V7.16375Z" stroke="#AFAFAF" stroke-width="1.4"/>
</svg>
