<svg width="25" height="22" viewBox="0 0 25 22" fill="none" xmlns="http://www.w3.org/2000/svg">
<path d="M3.3346 10.75C2.32445 10.75 1.50195 11.5989 1.50195 12.6414V18.6939C1.50195 19.7364 2.32445 20.5853 3.3346 20.5853H5.53379C5.94652 20.5853 6.32623 20.4416 6.63339 20.2025V10.75H3.3346Z" stroke="#AFAFAF" stroke-width="1.4"/>
<path d="M23.4982 12.9996C23.4982 12.4642 23.2862 11.9653 22.9182 11.5974C23.3343 11.1421 23.5463 10.5318 23.4884 9.89668C23.3842 8.76436 22.3641 7.87704 21.165 7.87704H15.662C15.9346 7.0494 16.3712 5.53226 16.3712 4.31354C16.3712 2.38122 14.7293 0.750031 13.6985 0.750031C12.7729 0.750031 12.1118 1.2712 12.0834 1.29258C11.9783 1.37722 11.9168 1.50551 11.9168 1.6409V4.66186L9.35105 10.2201L9.24414 10.2744V19.8229C9.9693 20.165 10.8869 20.3494 11.4713 20.3494H19.6487C20.6189 20.3494 21.4679 19.6955 21.6674 18.793C21.7699 18.3289 21.7102 17.8611 21.5062 17.4549C22.1646 17.1235 22.6073 16.4455 22.6073 15.6723C22.6073 15.3569 22.5352 15.0549 22.398 14.7814C23.0563 14.45 23.4982 13.772 23.4982 12.9996Z" stroke="#AFAFAF" stroke-width="1.4"/>
</svg>
