<svg width="25" height="25" viewBox="0 0 25 25" fill="none" xmlns="http://www.w3.org/2000/svg">
<path fill-rule="evenodd" clip-rule="evenodd" d="M22.994 5.70382C22.994 5.70383 22.994 5.70382 22.994 5.70382C23.0274 7.75064 22.9421 11.0825 22.2077 13.7875C20.7931 18.9983 17.8298 22.665 13.5969 24.4726C13.1816 24.65 12.754 24.8094 12.3145 24.9507L12.159 25L12.0002 24.9832H11.9969L11.8414 25L11.686 24.9507C11.2441 24.8087 10.8143 24.6483 10.3969 24.4698C6.16759 22.6611 3.20662 18.9956 1.79279 13.7875C1.05832 11.0824 0.97221 7.75041 1.00614 5.70361C1.00622 5.69915 1.0063 5.69409 1.00638 5.68963C1.01169 5.37488 1.01984 5.09079 1.02887 4.84439C1.03189 4.74105 1.0597 4.64035 1.10958 4.55216C1.15945 4.46397 1.22968 4.39135 1.31335 4.34142C1.39702 4.29149 1.49126 4.26597 1.5868 4.26737C1.68235 4.26877 1.77591 4.29705 1.8583 4.34942C2.60445 4.81916 3.76588 5.42826 4.79295 5.42826C5.2593 5.42826 5.73564 5.35137 6.22419 5.19039C6.53119 5.09156 6.83075 4.96745 7.12024 4.81916H7.12135C8.607 4.05148 9.97162 2.69632 11.2252 1.34837C11.432 1.12787 11.7099 1.00294 12.0002 0.999969C12.2906 1.00294 12.5685 1.12787 12.7753 1.34837C14.0288 2.69632 15.3935 4.05148 16.8791 4.81916C17.1691 4.96726 17.469 5.09136 17.7763 5.19039C18.2648 5.35137 18.74 5.42826 19.2075 5.42826C20.2346 5.42826 21.396 4.82036 22.1422 4.34942C22.2245 4.29705 22.3181 4.26877 22.4137 4.26737C22.5092 4.26597 22.6034 4.29149 22.6871 4.34142C22.7708 4.39135 22.841 4.46397 22.8909 4.55216C22.9408 4.64035 22.9686 4.74105 22.9716 4.84439C22.9805 5.09065 22.9885 5.37455 22.9937 5.6891C22.9938 5.69237 22.9938 5.69564 22.9939 5.69891C22.9939 5.70054 22.994 5.70219 22.994 5.70382ZM17.2805 6.71167C16.8928 6.58642 16.5153 6.42998 16.1513 6.24405L16.1446 6.24062C14.5658 5.42483 13.1708 4.09367 12.0002 2.86047C10.8296 4.09367 9.4346 5.42482 7.85586 6.2406L7.51031 6.41916H7.48244C7.23344 6.5304 6.97885 6.6281 6.71962 6.71176C6.08035 6.92183 5.43697 7.02826 4.79295 7.02826C4.026 7.02826 3.26426 6.8138 2.60027 6.54003C2.60475 8.50919 2.74567 11.1908 3.33688 13.3682C4.75335 18.586 7.77223 21.9467 12.0002 23.3698C16.2282 21.9467 19.2471 18.5861 20.6636 13.3683C21.2547 11.1913 21.395 8.5103 21.3997 6.54068C20.7356 6.81431 19.9742 7.02826 19.2075 7.02826C18.5621 7.02826 17.9197 6.92173 17.2805 6.71167Z" fill="#AFAFAF"/>
<path fill-rule="evenodd" clip-rule="evenodd" d="M17.5656 8.4343C17.8781 8.74672 17.8781 9.25325 17.5656 9.56567L10.8709 16.2604L6.43427 11.8237C6.12185 11.5113 6.12185 11.0048 6.43427 10.6924C6.74669 10.3799 7.25322 10.3799 7.56564 10.6924L10.8709 13.9976L16.4343 8.4343C16.7467 8.12188 17.2532 8.12188 17.5656 8.4343Z" fill="#AFAFAF"/>
</svg>
