<svg width="25" height="25" viewBox="0 0 25 25" fill="none" xmlns="http://www.w3.org/2000/svg">
<path d="M24.7477 19.155L20.8356 15.2423L21.6077 14.6813C21.9756 14.4151 22.2494 14.0389 22.3897 13.607C22.5301 13.1751 22.5296 12.7098 22.3885 12.2781L21.8613 10.6556C21.8056 10.4853 21.8056 10.3017 21.8613 10.1313L22.3885 8.50874C22.5297 8.07711 22.5301 7.61181 22.3897 7.17992C22.2494 6.74802 21.9756 6.37185 21.6077 6.10561L20.2274 5.10271C20.0822 4.99773 19.9743 4.84915 19.9193 4.67859L19.392 3.05599C19.2525 2.62385 18.9794 2.24717 18.612 1.98024C18.2446 1.71332 17.802 1.56992 17.3479 1.57073H15.6417C15.4614 1.57073 15.289 1.51471 15.1431 1.40873L13.7629 0.405894C13.3959 0.138336 12.9535 -0.00582886 12.4994 -0.00582886C12.0453 -0.00582886 11.6029 0.138336 11.236 0.405894L9.85567 1.4088C9.71093 1.51441 9.5363 1.57116 9.35712 1.5708H7.65098C7.19686 1.56998 6.75421 1.71336 6.38682 1.98029C6.01942 2.24722 5.74627 2.6239 5.60673 3.05605L5.07948 4.67872C5.02442 4.84921 4.9165 4.99774 4.77135 5.10278L3.39111 6.10561C3.02324 6.37187 2.74941 6.74805 2.60907 7.17993C2.46874 7.61182 2.46915 8.0771 2.61025 8.50874L3.1375 10.1313C3.19319 10.3016 3.19319 10.4852 3.1375 10.6555L2.61025 12.2782C2.46914 12.7098 2.46872 13.1751 2.60906 13.607C2.74939 14.0389 3.02323 14.4151 3.39111 14.6813L4.16317 15.2423L0.251045 19.1549C0.174633 19.2313 0.118466 19.3256 0.0876157 19.4292C0.0567656 19.5328 0.0522049 19.6424 0.0743457 19.7482C0.0964866 19.854 0.144631 19.9526 0.214431 20.0351C0.284231 20.1176 0.373487 20.1814 0.474136 20.2208L3.61621 21.4502L4.84559 24.5922C4.88496 24.6929 4.94879 24.7822 5.03132 24.852C5.11384 24.9218 5.21245 24.9699 5.31824 24.992C5.42404 25.0142 5.53368 25.0096 5.63726 24.9787C5.74084 24.9479 5.83511 24.8917 5.91153 24.8153L10.7208 20.0066L11.236 20.381C11.603 20.6484 12.0453 20.7925 12.4994 20.7927C12.9535 20.7926 13.3958 20.6484 13.7628 20.3809L14.2781 20.0065L19.0874 24.8153C19.1638 24.8917 19.258 24.9479 19.3616 24.9788C19.4652 25.0097 19.5749 25.0142 19.6806 24.9921C19.7864 24.97 19.8851 24.9218 19.9676 24.852C20.0501 24.7822 20.1139 24.6929 20.1533 24.5922L21.3826 21.4502L24.5247 20.2208C24.6253 20.1814 24.7146 20.1176 24.7844 20.0351C24.8541 19.9526 24.9023 19.854 24.9244 19.7482C24.9465 19.6424 24.942 19.5328 24.9111 19.4292C24.8803 19.3257 24.8241 19.2314 24.7477 19.155ZM5.69488 23.1918L4.72425 20.711C4.69155 20.6274 4.6419 20.5515 4.57842 20.488C4.51495 20.4245 4.43902 20.3749 4.35543 20.3422L1.87462 19.3716L5.09373 16.1519L5.60679 17.7309C5.74633 18.163 6.01948 18.5397 6.38687 18.8067C6.75426 19.0736 7.19692 19.217 7.65105 19.2161H9.35718C9.45009 19.2161 9.54085 19.2313 9.62699 19.2602L5.69488 23.1918ZM12.0008 19.3283L10.6205 18.3254C10.2537 18.0578 9.81121 17.914 9.35718 17.9149H7.65105C7.47184 17.9153 7.29715 17.8587 7.15217 17.7534C7.00719 17.648 6.89941 17.4994 6.84437 17.3288L6.31712 15.7063C6.18225 15.2911 5.92864 14.9344 5.58396 14.6691C5.57217 14.6591 5.56002 14.6495 5.54752 14.6404C5.54368 14.6375 5.54017 14.6343 5.53627 14.6315L4.15602 13.6286C4.01085 13.5236 3.9028 13.3751 3.84742 13.2047C3.79204 13.0343 3.79221 12.8507 3.84789 12.6803L4.37514 11.0577C4.51632 10.6262 4.51632 10.1609 4.37514 9.72933L3.84789 8.1068C3.79221 7.93645 3.79204 7.75282 3.84742 7.58237C3.90279 7.41192 4.01085 7.26345 4.15602 7.15835L5.53627 6.15551C5.90416 5.8894 6.17768 5.51296 6.31712 5.08085L6.84437 3.45825C6.89942 3.28771 7.0072 3.13906 7.15218 3.03372C7.29716 2.92838 7.47184 2.8718 7.65105 2.87213H9.35718C9.81125 2.87305 10.2538 2.72925 10.6206 2.4616L12.0008 1.45883C12.1456 1.35322 12.3202 1.29631 12.4994 1.29631C12.6786 1.29631 12.8532 1.35322 12.998 1.45883L14.3783 2.46173C14.7451 2.72937 15.1876 2.87317 15.6417 2.87226H17.3479C17.5271 2.87195 17.7017 2.92855 17.8467 3.03388C17.9916 3.13922 18.0994 3.28786 18.1545 3.45838L18.6817 5.08092C18.8211 5.51308 19.0946 5.88954 19.4626 6.15564L20.8429 7.15855C20.988 7.26364 21.0961 7.4121 21.1515 7.58254C21.2068 7.75298 21.2066 7.9366 21.1509 8.10693L20.6237 9.72959C20.4826 10.1611 20.4826 10.6264 20.6237 11.0579L21.1509 12.6805C21.2066 12.8509 21.2068 13.0345 21.1514 13.2049C21.0961 13.3754 20.988 13.5238 20.8428 13.6289L19.4626 14.6317C19.4578 14.6352 19.4535 14.6392 19.4487 14.6427C19.4377 14.6509 19.4268 14.6593 19.4162 14.6682C19.0708 14.9336 18.8168 15.2907 18.6817 15.7063L18.1545 17.329C18.0994 17.4995 17.9917 17.6482 17.8467 17.7535C17.7017 17.8589 17.5271 17.9154 17.3479 17.9151H15.6417C15.1876 17.9142 14.7451 18.058 14.3783 18.3257L12.9981 19.3284C12.8532 19.434 12.6786 19.4908 12.4994 19.4908C12.3202 19.4908 12.1456 19.4339 12.0008 19.3283ZM20.6434 20.3422C20.5598 20.3749 20.4839 20.4246 20.4204 20.488C20.357 20.5515 20.3073 20.6274 20.2746 20.711L19.304 23.1918L15.3718 19.2602C15.4587 19.231 15.5499 19.2161 15.6416 19.2162H17.3478C17.8019 19.217 18.2445 19.0736 18.6119 18.8067C18.9793 18.5398 19.2524 18.1631 19.392 17.731L19.905 16.1519L23.1243 19.3716L20.6434 20.3422Z" fill="#AFAFAF"/>
<path d="M15.5079 15.2198C15.6027 15.2198 15.6963 15.1991 15.7822 15.1592C15.8681 15.1192 15.9443 15.061 16.0054 14.9886C16.0665 14.9161 16.111 14.8312 16.1358 14.7398C16.1607 14.6484 16.1653 14.5526 16.1493 14.4592L15.6324 11.4458L17.8218 9.31173C17.9087 9.22699 17.9702 9.11962 17.9993 9.00176C18.0284 8.8839 18.0239 8.76025 17.9864 8.64479C17.9489 8.52934 17.8798 8.42668 17.787 8.34843C17.6942 8.27018 17.5814 8.21945 17.4612 8.202L14.4355 7.76232L13.0825 5.02062C13.0287 4.91178 12.9456 4.82013 12.8425 4.75606C12.7394 4.69198 12.6204 4.65802 12.499 4.65802C12.3777 4.65802 12.2587 4.69198 12.1556 4.75606C12.0525 4.82013 11.9694 4.91178 11.9156 5.02062L10.5626 7.76232L7.53695 8.202C7.41683 8.21948 7.30399 8.27021 7.21119 8.34847C7.11839 8.42672 7.04934 8.52937 7.01183 8.64482C6.97432 8.76027 6.96985 8.8839 6.99893 9.00176C7.02801 9.11961 7.08948 9.22698 7.17638 9.31173L9.36572 11.4458L8.84888 14.4592C8.82839 14.5789 8.84177 14.7018 8.88751 14.8143C8.93326 14.9267 9.00954 15.0241 9.10774 15.0955C9.20594 15.1668 9.32214 15.2093 9.44321 15.218C9.56428 15.2268 9.68539 15.2015 9.79284 15.1451L12.499 13.7223L15.2053 15.145C15.2986 15.1941 15.4025 15.2198 15.5079 15.2198ZM12.8017 12.4114C12.7084 12.3624 12.6045 12.3367 12.499 12.3367C12.3935 12.3367 12.2897 12.3624 12.1963 12.4114L10.3542 13.3799L10.706 11.3287C10.7239 11.2247 10.7162 11.1179 10.6836 11.0176C10.651 10.9173 10.5945 10.8264 10.5189 10.7527L9.02865 9.30008L11.0882 9.00074C11.1926 8.98558 11.2917 8.94527 11.377 8.88327C11.4624 8.82127 11.5313 8.73945 11.578 8.64486L12.499 6.77868L13.42 8.64493C13.4667 8.73951 13.5357 8.82132 13.621 8.88332C13.7063 8.94532 13.8055 8.98564 13.9098 9.00081L15.9695 9.30015L14.4791 10.7528C14.4036 10.8265 14.3471 10.9173 14.3145 11.0177C14.2819 11.118 14.2742 11.2247 14.292 11.3287L14.6439 13.38L12.8017 12.4114Z" fill="#AFAFAF"/>
</svg>
