<svg width="30" height="31" viewBox="0 0 30 31" fill="none" xmlns="http://www.w3.org/2000/svg">
<path fill-rule="evenodd" clip-rule="evenodd" d="M9.1287 2.01274L8.84907 4.33333C8.83209 4.47441 8.75976 4.60297 8.648 4.69072C8.53624 4.77847 8.3942 4.81823 8.25312 4.80125C8.11204 4.78428 7.98348 4.71195 7.89573 4.60019C7.80798 4.48843 7.76822 4.34638 7.7852 4.2053L7.9834 2.55914C6.03247 3.59605 4.33306 5.04877 3.00527 6.81463L3.91754 8.95095C3.96595 9.08017 3.96268 9.22308 3.9084 9.34996C3.85413 9.47683 3.75303 9.57789 3.62614 9.63212C3.49925 9.68636 3.35634 9.68958 3.22713 9.64113C3.09792 9.59268 2.99236 9.49629 2.93242 9.372L2.28638 7.85922C1.11148 9.72857 0.366779 11.8357 0.106137 14.0282L1.95586 15.4156C2.06952 15.5009 2.14466 15.6278 2.16475 15.7684C2.18484 15.909 2.14824 16.0519 2.063 16.1656C1.97775 16.2792 1.85085 16.3544 1.71021 16.3745C1.56956 16.3946 1.4267 16.3579 1.31304 16.2727L0.00971354 15.2951C-0.0697973 17.499 0.339621 19.6932 1.20858 21.7201L3.48899 21.9949C3.78255 22.0303 3.99254 22.2976 3.95718 22.5911C3.93989 22.7321 3.86744 22.8605 3.75569 22.9481C3.64393 23.0358 3.502 23.0756 3.36096 23.0588L1.75873 22.8654C2.79689 24.8081 4.24796 26.4998 6.00993 27.8216L8.10661 26.9264C8.23583 26.878 8.37874 26.8813 8.50561 26.9356C8.63249 26.9898 8.73355 27.0909 8.78778 27.2178C8.84202 27.3447 8.84524 27.4876 8.7968 27.6168C8.74835 27.7461 8.65195 27.8516 8.52766 27.9116L7.05613 28.5399C8.92034 29.7083 11.0201 30.4494 13.2047 30.71L14.5713 28.8881C14.6135 28.8318 14.6664 28.7844 14.7269 28.7486C14.7874 28.7127 14.8544 28.6892 14.9241 28.6792C14.9937 28.6693 15.0646 28.6731 15.1328 28.6906C15.2009 28.7081 15.2649 28.7388 15.3212 28.781C15.3775 28.8232 15.4249 28.8761 15.4608 28.9366C15.4966 28.9971 15.5202 29.0641 15.5301 29.1338C15.5401 29.2034 15.5362 29.2743 15.5187 29.3425C15.5013 29.4106 15.4706 29.4747 15.4284 29.5309L14.4711 30.8075C16.6681 30.8876 18.8557 30.4819 20.8779 29.6193L21.1506 27.355C21.1675 27.2139 21.2399 27.0853 21.3516 26.9976C21.4634 26.9098 21.6054 26.8701 21.7465 26.8871C21.8876 26.904 22.0161 26.9764 22.1039 27.0881C22.1916 27.1999 22.2314 27.3419 22.2144 27.483L22.0227 29.0719C23.9637 28.0391 25.6556 26.5946 26.9799 24.8394L26.0821 22.7374C26.0337 22.6081 26.037 22.4652 26.0912 22.3384C26.1455 22.2115 26.2466 22.1104 26.3735 22.0562C26.5004 22.002 26.6433 21.9987 26.7725 22.0472C26.9017 22.0956 27.0073 22.192 27.0672 22.3163L27.6999 23.797C28.873 21.9361 29.6199 19.8388 29.8871 17.6553L28.0438 16.2727C27.9875 16.2305 27.9401 16.1776 27.9042 16.1171C27.8684 16.0566 27.8448 15.9896 27.8349 15.9199C27.8249 15.8503 27.8288 15.7794 27.8463 15.7112C27.8637 15.6431 27.8944 15.579 27.9366 15.5227C27.9788 15.4665 28.0317 15.4191 28.0922 15.3832C28.1528 15.3474 28.2198 15.3238 28.2894 15.3139C28.3591 15.3039 28.43 15.3078 28.4981 15.3252C28.5663 15.3427 28.6303 15.3734 28.6866 15.4156L29.9883 16.3916C30.0754 14.1911 29.6748 11.9985 28.8152 9.97089L26.5106 9.69341C26.3696 9.67643 26.241 9.6041 26.1532 9.49234C26.0655 9.38058 26.0257 9.23853 26.0427 9.09746C26.0597 8.95638 26.132 8.82782 26.2438 8.74007C26.3555 8.65232 26.4976 8.61256 26.6387 8.62954L28.2714 8.82613C27.24 6.87678 25.7938 5.17717 24.0347 3.84693L21.893 4.76188C21.7626 4.81632 21.616 4.81703 21.4851 4.76388C21.3542 4.71072 21.2496 4.608 21.1941 4.47808C21.1385 4.34816 21.1366 4.20156 21.1886 4.0702C21.2407 3.93885 21.3425 3.83337 21.472 3.77675L22.9939 3.12643C21.1279 1.94677 19.0232 1.19624 16.8319 0.929046L15.4284 2.8002C15.3431 2.91386 15.2162 2.989 15.0756 3.00909C14.9349 3.02918 14.7921 2.99258 14.6784 2.90733C14.5647 2.82209 14.4896 2.69519 14.4695 2.55454C14.4494 2.4139 14.486 2.27103 14.5713 2.15737L15.5676 0.828872C13.3602 0.742347 11.161 1.14669 9.1287 2.01274ZM14.9998 6.17502C9.67831 6.17502 5.35747 10.4959 5.35747 15.8174C5.35747 21.1389 9.67831 25.4597 14.9998 25.4597C20.3213 25.4597 24.6422 21.1389 24.6422 15.8174C24.6422 10.4959 20.3213 6.17502 14.9998 6.17502Z" fill="#BD0808"/>
<path fill-rule="evenodd" clip-rule="evenodd" d="M11.6068 22.5064C12.6262 23.0244 13.779 23.3169 14.9998 23.3169C16.2207 23.3169 17.3735 23.0244 18.3929 22.5064C17.5647 21.0681 16.4339 19.9094 14.9998 19.0314C13.5658 19.9094 12.435 21.0681 11.6068 22.5064ZM22.41 14.6575C20.7863 15.0004 19.3352 15.7182 18.0565 16.8105C18.4486 18.4448 19.2002 19.8778 20.3117 21.1094C21.0063 20.4143 21.557 19.5892 21.9324 18.6811C22.3077 17.773 22.5005 16.7999 22.4995 15.8173C22.4995 15.423 22.4689 15.0352 22.41 14.6575ZM7.5897 14.6575C7.53078 15.0352 7.50024 15.423 7.50024 15.8173C7.50024 17.8818 8.33645 19.753 9.68799 21.1094C10.7995 19.8778 11.5511 18.4448 11.9432 16.8105C10.6645 15.7182 9.21337 15.0004 7.5897 14.6575ZM13.8133 8.41145C11.415 8.79285 9.39443 10.3131 8.32359 12.4002C9.83851 13.0773 11.4343 13.3494 13.1105 13.2171C13.7544 11.6636 13.9885 10.0619 13.8133 8.41145ZM16.1864 8.41145C16.0112 10.0619 16.2453 11.6636 16.8892 13.2171C18.5654 13.3494 20.1612 13.0773 21.6761 12.4002C20.6053 10.3137 18.5847 8.79339 16.1864 8.41145ZM14.9998 14.1985C14.5777 14.2093 14.1765 14.3846 13.8818 14.6871C13.5871 14.9895 13.4221 15.395 13.4221 15.8173C13.4221 16.2396 13.5871 16.6452 13.8818 16.9476C14.1765 17.25 14.5777 17.4253 14.9998 17.4362C15.8934 17.4362 16.6187 16.7103 16.6187 15.8173C16.6187 14.9243 15.8934 14.1985 14.9998 14.1985ZM14.9998 15.2698C15.0732 15.2676 15.1463 15.2801 15.2147 15.3066C15.2832 15.3331 15.3456 15.3731 15.3983 15.4243C15.451 15.4754 15.4929 15.5366 15.5215 15.6042C15.55 15.6718 15.5648 15.7444 15.5647 15.8179C15.5647 15.8913 15.5499 15.9639 15.5212 16.0315C15.4926 16.0991 15.4506 16.1602 15.3979 16.2113C15.3452 16.2623 15.2827 16.3023 15.2142 16.3288C15.1458 16.3552 15.0727 16.3676 14.9993 16.3653C14.857 16.3609 14.722 16.3012 14.6229 16.199C14.5238 16.0967 14.4684 15.9599 14.4684 15.8176C14.4684 15.6752 14.5238 15.5384 14.6229 15.4362C14.722 15.3339 14.8575 15.2743 14.9998 15.2698Z" fill="#BD0808"/>
</svg>
