<svg width="30" height="31" viewBox="0 0 30 31" fill="none" xmlns="http://www.w3.org/2000/svg">
<path d="M28.0841 14.9268L29.9065 14.7393C29.7664 12.7705 29.2523 10.9424 28.4579 9.30179L26.729 10.0518L25.8411 8.50491L27.3365 7.37991C26.2617 5.83304 24.9065 4.47366 23.3645 3.39554L22.243 4.94241L20.7009 4.05179L21.4486 2.31741C19.8131 1.47366 17.9907 0.958038 16.0748 0.817413L15.8411 2.69241H14.0654L13.8318 0.817413C11.9159 0.958038 10.0935 1.47366 8.41122 2.27054L9.15888 4.00491L7.61682 4.89554L6.49533 3.39554C4.90654 4.47366 3.59813 5.83304 2.52336 7.37991L4.01869 8.50491L3.13084 10.0518L1.40187 9.30179C0.654206 10.9424 0.140187 12.7705 0 14.7393L1.82243 14.9268V16.708L0 16.9424C0.140187 18.8643 0.654206 20.6924 1.4486 22.3799L3.17757 21.6299L4.06542 23.1768L2.57009 24.3018C3.64486 25.8955 4.95327 27.208 6.54206 28.2862L7.66355 26.7393L9.20561 27.6299L8.45794 29.3643C10.0935 30.1612 11.9159 30.6768 13.8785 30.8174L14.1122 28.9893H15.8879L16.1215 30.8174C18.0374 30.6768 19.8598 30.1612 21.5421 29.3643L20.7944 27.6299L22.3364 26.7393L23.4579 28.2862C25 27.208 26.3551 25.8487 27.4299 24.3018L25.9346 23.1768L26.8224 21.6299L28.5514 22.3799C29.3458 20.6924 29.8598 18.8643 30 16.9424L28.1776 16.708V14.9268H28.0841ZM14.9533 25.1924C9.81308 25.1924 5.60748 20.9737 5.60748 15.8174C5.60748 10.6612 9.81308 6.44241 14.9533 6.44241C20.0935 6.44241 24.2991 10.6612 24.2991 15.8174C24.2991 20.9737 20.0935 25.1924 14.9533 25.1924Z" fill="#2898FF"/>
<path d="M22.7642 16.9851C22.8942 17.3063 22.7401 17.6724 22.42 17.8029L20.681 18.5123L22.2904 19.4824C22.5906 19.6544 22.6949 20.0378 22.5235 20.3389C22.3521 20.64 21.9699 20.7447 21.6697 20.5728C21.6616 20.5681 21.6536 20.5633 21.6458 20.5583L20.0365 19.5884L20.2285 21.4623C20.2583 21.8077 20.0032 22.112 19.6588 22.1418C19.3223 22.171 19.0234 21.9269 18.9835 21.5905L18.6956 18.7801L15.6202 16.9269V20.5258L17.8732 22.2208C18.1497 22.4289 18.2058 22.8224 17.9984 23.0998C17.791 23.3771 17.3987 23.4333 17.1222 23.2253L15.6202 22.0953V23.9787C15.6202 24.3254 15.3399 24.6065 14.9943 24.6065C14.6487 24.6065 14.3685 24.3254 14.3685 23.9787V22.0953L12.8664 23.2253C12.5899 23.4333 12.1977 23.3771 11.9903 23.0998C11.7829 22.8224 11.8389 22.4289 12.1154 22.2208L14.3684 20.5258V16.9269L11.2933 18.7806L11.0054 21.5909C10.9756 21.9363 10.6724 22.1922 10.328 22.1623C9.98361 22.1325 9.72858 21.8283 9.75834 21.4828C9.75894 21.4761 9.75959 21.4694 9.76041 21.4627L9.95244 19.5888L8.34314 20.5588C8.05093 20.744 7.66438 20.6565 7.47976 20.3634C7.29515 20.0702 7.38236 19.6825 7.67457 19.4973C7.68242 19.4923 7.69043 19.4875 7.6985 19.4828L9.3079 18.5128L7.56893 17.8033C7.25084 17.6677 7.10258 17.2991 7.23781 16.98C7.36999 16.668 7.72515 16.5177 8.04014 16.6403L10.649 17.7045L13.7794 15.8173L10.6487 13.9304L8.03987 14.9949C7.71763 15.1204 7.35505 14.9599 7.23002 14.6367C7.10781 14.3207 7.2577 13.9645 7.56866 13.8319L9.30763 13.1224L7.69833 12.1521C7.39817 11.9802 7.29384 11.5967 7.46521 11.2957C7.63663 10.9946 8.01888 10.8899 8.31899 11.0618C8.32706 11.0665 8.33502 11.0713 8.34292 11.0763L9.95222 12.0462L9.76019 10.1723C9.72493 9.82741 9.97506 9.51909 10.3189 9.48371C10.6627 9.44833 10.9701 9.69925 11.0053 10.0441L11.2932 12.8545L14.3686 14.708V11.109L12.1156 9.41394C11.839 9.20601 11.7828 8.81256 11.99 8.53507C12.1973 8.25759 12.5896 8.20122 12.8662 8.40915L12.8666 8.40948L14.3686 9.53948V7.65615C14.3686 7.30944 14.6488 7.02835 14.9944 7.02835C15.34 7.02835 15.6203 7.30944 15.6203 7.65615V9.53954L17.1223 8.40953C17.3988 8.20149 17.7911 8.2577 17.9985 8.53507C18.2059 8.81245 18.1498 9.20595 17.8733 9.414L15.6203 11.109V14.708L18.6956 12.8542L18.9835 10.0439C19.0243 9.69963 19.3356 9.45369 19.6788 9.49459C20.0143 9.53456 20.2576 9.83441 20.2285 10.172L20.0365 12.046L21.6458 11.076C21.938 10.8908 22.3245 10.9783 22.5091 11.2715C22.6938 11.5646 22.6065 11.9524 22.3143 12.1375C22.3064 12.1425 22.2985 12.1473 22.2904 12.152L20.6809 13.1221L22.4199 13.8315C22.738 13.9671 22.8862 14.3358 22.751 14.6549C22.6188 14.9668 22.2636 15.1171 21.9487 14.9946L19.3398 13.9303L16.2094 15.8175L19.3401 17.7044L21.9489 16.6402C22.2685 16.5094 22.6334 16.6633 22.7637 16.984L22.7642 16.9851Z" fill="#2898FF"/>
</svg>
